<?xml version="1.0" encoding="UTF-8"?>
<svg width="414px" height="19px" viewBox="0 0 414 19" version="1.1" xmlns="http://www.w3.org/2000/svg" xmlns:xlink="http://www.w3.org/1999/xlink">
    <title>Path</title>
    <g id="Page-1" stroke="none" stroke-width="1" fill="none" fill-rule="evenodd">
        <g id="975152_OGF8DE1" transform="translate(-127, -502)" fill="#2DD4BF" fill-rule="nonzero">
            <path d="M540.171,509.557 C538.622,510.198 537.341,510.306 536.041,510.284 C528.587,510.159 521.134,509.982 513.679,509.893 C507.989,509.825 502.106,509.252 496.645,509.984 C487.016,511.275 477.407,510.28 467.81,510.63 C456.773,511.032 445.617,510.887 434.507,510.8 C424.863,510.725 415.225,510.205 405.562,510.523 C401.804,510.647 397.995,510.062 394.227,510.457 C388.689,511.037 383.187,510.941 377.667,510.406 C375.15,510.162 372.745,510.775 370.274,510.917 C363.739,511.293 357.187,511.349 350.635,511.45 C349.48,511.468 348.239,511.543 347.199,511.837 C343.498,512.884 339.519,513.356 335.649,513.349 C329.062,513.336 322.67,514.368 316.051,514.304 C304.817,514.195 293.569,514.851 282.329,514.814 C271.519,514.779 260.713,514.674 249.902,514.788 C245.799,514.831 241.717,514.933 237.64,515.214 C236.333,515.304 235.008,515.473 233.713,515.409 C225.02,514.982 216.541,516.182 207.966,516.709 C200.263,517.183 192.579,517.793 184.854,518.172 C175.388,518.637 165.944,519.441 156.553,520.369 C148.799,521.135 141.402,520.142 133.996,519.02 C131.268,518.607 127.883,515.359 127.766,513.513 C127.649,511.669 128.798,510.723 131.637,510.285 C138.91,509.164 146.409,509.12 153.745,508.175 C169.833,506.103 186.108,504.803 202.477,504.143 C215.322,503.625 228.188,503.412 241.065,503.441 C251.005,503.464 260.953,503.131 270.885,503.292 C281.566,503.466 292.227,503.13 302.899,503.129 C319.713,503.128 336.527,502.741 353.341,502.719 C367.97,502.7 382.598,502.897 397.217,503.432 C423.819,504.405 450.462,504.984 477.028,506.264 C495.278,507.143 513.547,507.739 531.797,508.56 C534.53,508.683 537.163,509.065 540.171,509.557 Z" id="Path"></path>
        </g>
    </g>
</svg>